<svg width="684" height="684" viewBox="0 0 684 684" fill="none" xmlns="http://www.w3.org/2000/svg">
<path d="M341.517 683.034C528.013 683.034 683.037 528.013 683.037 341.517C683.037 154.687 527.679 0 341.183 0C154.351 0 0 154.687 0 341.517C0 528.013 154.687 683.034 341.517 683.034ZM254.129 424.889C171.093 342.187 118.191 236.717 180.803 174.107C184.486 170.423 188.504 166.74 192.187 163.057C211.271 144.977 229.687 145.981 246.093 169.084L289.62 231.026C304.351 252.454 300.669 264.509 284.933 281.25L271.204 296.317C266.183 301.003 268.191 307.366 270.536 311.383C276.897 323.437 294.977 344.866 314.396 364.286C334.486 384.374 354.91 401.45 367.633 408.481C372.321 411.16 379.017 411.83 383.37 407.811L397.767 394.084C413.839 378.347 426.897 374.33 447.656 389.061C476.45 409.486 493.861 421.54 510.937 433.259C532.03 448.66 537.053 467.746 515.624 487.164C511.941 490.847 508.593 494.866 504.91 498.549C442.299 560.826 337.164 507.923 254.129 424.889Z" fill="#4356FF"/>
</svg>
