<svg width="800" height="800" viewBox="0 0 800 800" fill="none" xmlns="http://www.w3.org/2000/svg">
<path d="M400 0.5C505.954 0.5 607.568 42.59 682.489 117.511C757.41 192.432 799.5 294.046 799.5 400C799.5 505.954 757.41 607.568 682.489 682.489C607.568 757.41 505.954 799.5 400 799.5C294.046 799.5 192.432 757.41 117.511 682.489C42.59 607.568 0.5 505.954 0.5 400C0.5 294.046 42.59 192.432 117.511 117.511C192.432 42.59 294.046 0.5 400 0.5ZM563.539 240.3C555.949 240.427 546.343 242.529 524.798 250.349C503.241 258.172 469.681 271.739 414.158 294.838C375.256 311.039 297.456 344.539 180.865 395.335C171.397 399.092 164.14 402.837 159.127 406.562C154.128 410.276 151.279 414.033 150.804 417.838C150.414 420.994 151.114 423.696 152.727 426.059C154.329 428.407 156.816 430.396 159.959 432.185C166.235 435.754 175.295 438.608 185.649 441.877L194.4 444.627V444.626C204.606 447.953 216.591 451.557 227.81 454.366C239.018 457.173 249.503 459.197 256.688 459.349V459.35C269.832 459.653 284.384 454.295 300.38 443.265C354.854 406.49 396.153 378.816 424.27 360.236C438.328 350.946 449.09 343.931 456.554 339.188C460.286 336.817 463.19 335.016 465.27 333.784C466.31 333.168 467.139 332.697 467.76 332.368C468.403 332.028 468.768 331.871 468.911 331.838L468.917 331.836C470.165 331.536 471.613 331.225 473.021 331.237C474.423 331.249 475.735 331.581 476.763 332.52L476.771 332.526C477.82 333.441 478.313 334.806 478.505 336.122C478.696 337.438 478.573 338.624 478.464 339.084L478.463 339.087C478.393 339.389 478.122 339.915 477.594 340.684C477.078 341.433 476.355 342.362 475.439 343.453C473.61 345.634 471.036 348.438 467.887 351.72C461.588 358.282 453.005 366.732 443.497 375.884C424.482 394.186 401.785 415.283 386.31 429.684L386.309 429.685C376.676 438.669 369.81 445.033 368.393 446.5C365.314 449.647 362.183 452.744 359.004 455.789L359.003 455.79C354.259 460.36 349.786 464.668 346.292 468.902C342.799 473.135 340.242 477.34 339.378 481.716C337.632 490.556 342.826 499.752 359.824 510.967C376.172 521.765 389.27 530.614 402.318 539.513C416.519 549.213 430.722 558.866 449.125 570.968L449.129 570.97C453.767 573.962 458.255 577.204 462.609 580.307C479.123 592.08 494.228 602.818 512.796 601.098C523.853 600.064 534.983 589.741 540.592 559.692C553.841 488.844 579.895 335.374 585.897 272.098L585.898 272.085C586.244 267.121 586.073 262.136 585.388 257.209L585.244 256.225C584.755 251.904 582.662 247.923 579.378 245.072L579.356 245.055L579.334 245.038C574.698 241.838 569.171 240.18 563.539 240.3Z" fill="#4356FF" stroke="#4356FF"/>
</svg>
